<svg xmlns="http://www.w3.org/2000/svg" xmlns:xlink="http://www.w3.org/1999/xlink" fill="none" version="1.1" width="117" height="30" viewBox="0 0 117 30"><defs><clipPath id="master_svg0_3_33483"><rect x="0" y="0" width="30" height="30" rx="0"/></clipPath></defs><g><g><g><path d="M44.06,16.48Q44,17.08,43.88,17.810000000000002Q43.76,18.54,43.51,19.29Q43.26,20.04,42.84,20.74Q42.42,21.44,41.76,21.99Q41.1,22.54,40.17,22.87Q39.24,23.2,37.96,23.2Q36.66,23.2,35.74,22.83Q34.82,22.46,34.24,21.81Q33.66,21.16,33.4,20.3Q33.14,19.44,33.14,18.46Q33.14,18.02,33.18,17.27Q33.22,16.52,33.29,15.64Q33.36,14.76,33.44,13.81Q33.52,12.86,33.59,12Q33.66,11.14,33.72,10.45Q33.78,9.76,33.8,9.4Q33.82,9.02,33.9,8.91Q33.98,8.8,34.14,8.8L35.24,8.8Q36.46,8.8,36.88,9.32Q37.3,9.84,37.3,10.86Q37.3,10.92,37.269999999999996,11.39Q37.24,11.86,37.19,12.54Q37.14,13.22,37.09,14.02Q37.04,14.82,36.99,15.54Q36.94,16.259999999999998,36.91,16.8Q36.88,17.34,36.88,17.52Q36.88,17.86,36.91,18.3Q36.94,18.740000000000002,37.07,19.14Q37.2,19.54,37.49,19.81Q37.78,20.08,38.32,20.08Q39,20.08,39.43,19.62Q39.86,19.16,40.09,18.52Q40.32,17.880000000000003,40.41,17.22Q40.5,16.560000000000002,40.54,16.14Q40.62,15.12,40.71,14.04Q40.8,12.96,40.87,12.02Q40.94,11.08,40.980000000000004,10.379999999999999Q41.019999999999996,9.68,41.019999999999996,9.42Q41.019999999999996,9.02,41.08,8.91Q41.14,8.8,41.34,8.8L42.44,8.8Q43.12,8.8,43.51,8.92Q43.9,9.04,44.1,9.24Q44.3,9.440000000000001,44.35,9.7Q44.4,9.96,44.4,10.24Q44.4,10.5,44.37,11.22Q44.34,11.94,44.3,12.86Q44.26,13.78,44.2,14.76Q44.14,15.74,44.06,16.48ZM50.54,11.8Q52.239999999999995,11.8,53.04,12.47Q53.84,13.14,53.84,14.18Q53.84,15.06,53.29,15.52Q52.739999999999995,15.98,51.7,15.98Q51.42,15.98,51.32,15.92Q51.22,15.86,51.22,15.7Q51.22,15.52,51.19,15.29Q51.16,15.06,51.05,14.85Q50.94,14.64,50.71,14.5Q50.480000000000004,14.36,50.06,14.36Q49.5,14.36,49.16,14.63Q48.82,14.9,48.82,15.3Q48.82,15.72,49.17,15.97Q49.519999999999996,16.22,50.05,16.439999999999998Q50.58,16.66,51.2,16.89Q51.82,17.119999999999997,52.35,17.5Q52.879999999999995,17.880000000000003,53.230000000000004,18.45Q53.58,19.02,53.58,19.92Q53.58,21.36,52.56,22.28Q51.54,23.2,49.5,23.2Q48.94,23.2,48.21,23.11Q47.480000000000004,23.02,46.82,22.83Q46.16,22.64,45.71,22.32Q45.26,22,45.26,21.52Q45.26,21.34,45.33,21.08Q45.4,20.82,45.55,20.58Q45.7,20.34,45.91,20.17Q46.12,20,46.42,20Q46.66,20,46.86,20.12Q47.06,20.24,47.33,20.37Q47.6,20.5,48,20.62Q48.4,20.74,49.06,20.74Q49.56,20.74,49.95,20.62Q50.34,20.5,50.34,20.08Q50.34,19.7,50.019999999999996,19.47Q49.7,19.24,49.21,19.04Q48.72,18.84,48.15,18.61Q47.58,18.380000000000003,47.09,18Q46.6,17.619999999999997,46.28,17.03Q45.96,16.439999999999998,45.96,15.5Q45.96,14.48,46.37,13.77Q46.78,13.06,47.43,12.62Q48.08,12.18,48.9,11.99Q49.72,11.8,50.54,11.8ZM59.9,23.2Q59.019999999999996,23.2,58.15,22.98Q57.28,22.76,56.59,22.22Q55.9,21.68,55.46,20.78Q55.019999999999996,19.88,55.019999999999996,18.52Q55.019999999999996,18.02,55.1,17.32Q55.18,16.619999999999997,55.41,15.88Q55.64,15.14,56.05,14.41Q56.46,13.68,57.120000000000005,13.1Q57.78,12.52,58.72,12.16Q59.66,11.8,60.96,11.8Q62,11.8,62.72,12.04Q63.44,12.28,63.879999999999995,12.69Q64.32,13.1,64.52000000000001,13.64Q64.72,14.18,64.72,14.8Q64.72,15.72,64.35,16.36Q63.980000000000004,17,63.39,17.43Q62.8,17.86,62.08,18.1Q61.36,18.34,60.66,18.47Q59.96,18.6,59.370000000000005,18.630000000000003Q58.78,18.66,58.46,18.66Q58.46,19.04,58.57,19.41Q58.68,19.78,58.9,20.06Q59.120000000000005,20.34,59.480000000000004,20.52Q59.84,20.7,60.36,20.7Q60.879999999999995,20.7,61.17,20.53Q61.46,20.36,61.64,20.15Q61.82,19.94,61.95,19.77Q62.08,19.6,62.3,19.6Q62.4,19.6,62.65,19.65Q62.9,19.7,63.16,19.86Q63.42,20.02,63.620000000000005,20.3Q63.82,20.58,63.82,21.02Q63.82,21.6,63.46,22.02Q63.1,22.44,62.53,22.7Q61.96,22.96,61.260000000000005,23.08Q60.56,23.2,59.9,23.2ZM60.28,14.46Q59.84,14.46,59.53,14.71Q59.22,14.96,59.010000000000005,15.34Q58.8,15.72,58.69,16.18Q58.58,16.64,58.519999999999996,17.060000000000002Q59.760000000000005,17.04,60.53,16.64Q61.3,16.240000000000002,61.3,15.5Q61.3,15.1,61.05,14.78Q60.8,14.46,60.28,14.46ZM72.38,16.78Q72.25999999999999,16.78,72.11,16.77Q71.96000000000001,16.759999999999998,71.82,16.73Q71.68,16.7,71.58,16.65Q71.47999999999999,16.6,71.47999999999999,16.52Q71.47999999999999,16.259999999999998,71.5,16.04Q71.52000000000001,15.82,71.52000000000001,15.58Q71.52000000000001,15.14,71.4,14.86Q71.28,14.58,70.92,14.58Q70.36,14.58,69.99000000000001,15.31Q69.62,16.04,69.52000000000001,17.5Q69.47999999999999,18.14,69.41,18.95Q69.34,19.76,69.28,20.51Q69.22,21.26,69.18,21.84Q69.14,22.42,69.14,22.6Q69.14,22.8,69,22.9Q68.86,23,68.7,23L67.97999999999999,23Q67.36,23,66.97,22.87Q66.58,22.74,66.35,22.5Q66.12,22.26,66.03,21.91Q65.94,21.56,65.94,21.1Q65.94,20.8,65.97,20.25Q66,19.7,66.08,18.73Q66.16,17.759999999999998,66.27000000000001,16.27Q66.38,14.78,66.53999999999999,12.58Q66.58,12,66.96000000000001,12L67.74000000000001,12Q68.3,12,68.68,12.12Q69.06,12.24,69.3,12.45Q69.53999999999999,12.66,69.65,12.94Q69.75999999999999,13.22,69.8,13.52Q70.03999999999999,13.06,70.37,12.73Q70.7,12.4,71.06,12.19Q71.42,11.98,71.8,11.89Q72.18,11.8,72.5,11.8Q72.88,11.8,73.27000000000001,11.94Q73.66,12.08,73.97999999999999,12.36Q74.3,12.64,74.49000000000001,13.08Q74.68,13.52,74.68,14.12Q74.68,14.66,74.52000000000001,15.14Q74.36,15.62,74.06,15.99Q73.75999999999999,16.36,73.33,16.57Q72.9,16.78,72.38,16.78ZM81.22,11.6L80.46000000000001,22.7Q80.44,23,80.24000000000001,23L79.14,23Q78.02000000000001,23,77.53999999999999,22.56Q77.06,22.12,77.06,21.3Q77.06,21,77.09,20.4Q77.12,19.8,77.18,18.990000000000002Q77.24000000000001,18.18,77.31,17.23Q77.38,16.28,77.46000000000001,15.31Q77.53999999999999,14.34,77.61,13.38Q77.68,12.42,77.74000000000001,11.6L74.53999999999999,11.6Q74.32,11.6,74.32,11.32L74.38,10.2Q74.4,9.940000000000001,74.47,9.690000000000001Q74.53999999999999,9.440000000000001,74.7,9.24Q74.86,9.04,75.11,8.92Q75.36,8.8,75.72,8.8L84.66,8.8Q84.78,8.8,84.88,8.86Q84.97999999999999,8.92,84.97999999999999,9.08L84.9,10.26Q84.86,10.86,84.57,11.23Q84.28,11.6,83.38,11.6L81.22,11.6ZM88.75999999999999,23.2Q87.38,23.2,86.47,22.81Q85.56,22.42,85.02000000000001,21.74Q84.47999999999999,21.06,84.25999999999999,20.15Q84.03999999999999,19.24,84.03999999999999,18.2Q84.03999999999999,17,84.33,15.85Q84.62,14.7,85.32,13.8Q86.02000000000001,12.9,87.17,12.35Q88.32,11.8,90.03999999999999,11.8Q92.56,11.8,93.65,13.03Q94.74000000000001,14.26,94.74000000000001,16.48Q94.74000000000001,17.1,94.65,17.85Q94.56,18.6,94.31,19.34Q94.06,20.08,93.63,20.78Q93.2,21.48,92.53999999999999,22.02Q91.88,22.56,90.95,22.88Q90.02000000000001,23.2,88.75999999999999,23.2ZM89.7,14.46Q88.94,14.46,88.49000000000001,14.85Q88.03999999999999,15.24,87.81,15.79Q87.58,16.34,87.50999999999999,16.95Q87.44,17.560000000000002,87.44,17.98Q87.44,19.3,87.86,19.92Q88.28,20.54,89.06,20.54Q89.75999999999999,20.54,90.21000000000001,20.1Q90.66,19.66,90.91,19.04Q91.16,18.42,91.25,17.740000000000002Q91.34,17.060000000000002,91.34,16.6Q91.34,15.6,90.97,15.03Q90.6,14.46,89.7,14.46ZM100.06,13.7Q100.06,14.12,99.99,14.88Q99.92,15.64,99.85,16.46Q99.78,17.28,99.71,18Q99.64,18.72,99.64,19.04Q99.64,19.74,99.99,20.13Q100.34,20.52,100.96,20.52Q101.5,20.52,101.87,20.09Q102.24,19.66,102.47,18.97Q102.7,18.28,102.84,17.4Q102.98,16.52,103.05,15.62Q103.12,14.72,103.17,13.87Q103.22,13.02,103.28,12.4Q103.3,12.24,103.4,12.12Q103.5,12,103.72,12L104.44,12Q105.06,12,105.45,12.13Q105.84,12.26,106.07,12.5Q106.3,12.74,106.39,13.09Q106.48,13.44,106.48,13.9Q106.48,14.2,106.45,14.75Q106.42,15.3,106.34,16.27Q106.26,17.240000000000002,106.15,18.73Q106.04,20.22,105.88,22.42Q105.84,22.84,105.79,22.92Q105.74,23,105.46,23L104.68,23Q104.08,23,103.69,22.86Q103.3,22.72,103.06,22.5Q102.82,22.28,102.72,21.98Q102.62,21.68,102.6,21.36Q102.3,21.88,101.93,22.24Q101.56,22.6,101.16,22.81Q100.76,23.02,100.34,23.11Q99.92,23.2,99.52,23.2Q98.76,23.2,98.16,22.95Q97.56,22.7,97.15,22.28Q96.74,21.86,96.52,21.28Q96.3,20.7,96.3,20.04Q96.3,19.78,96.33,19.19Q96.36,18.6,96.41,17.86Q96.46,17.119999999999997,96.52,16.29Q96.58,15.46,96.63,14.72Q96.68,13.98,96.73,13.42Q96.78,12.86,96.8,12.62Q96.84,12.26,96.96,12.13Q97.08,12,97.36,12L98,12Q98.62,12,99.02,12.12Q99.42,12.24,99.65,12.46Q99.88,12.68,99.97,12.99Q100.06,13.3,100.06,13.7ZM114.7,16.78Q114.58,16.78,114.43,16.77Q114.28,16.759999999999998,114.14,16.73Q114,16.7,113.9,16.65Q113.8,16.6,113.8,16.52Q113.8,16.259999999999998,113.82,16.04Q113.84,15.82,113.84,15.58Q113.84,15.14,113.72,14.86Q113.6,14.58,113.24,14.58Q112.68,14.58,112.31,15.31Q111.94,16.04,111.84,17.5Q111.8,18.14,111.73,18.95Q111.66,19.76,111.6,20.51Q111.54,21.26,111.5,21.84Q111.46,22.42,111.46,22.6Q111.46,22.8,111.32,22.9Q111.18,23,111.02,23L110.3,23Q109.68,23,109.29,22.87Q108.9,22.74,108.67,22.5Q108.44,22.26,108.35,21.91Q108.26,21.56,108.26,21.1Q108.26,20.8,108.29,20.25Q108.32,19.7,108.4,18.73Q108.48,17.759999999999998,108.59,16.27Q108.7,14.78,108.86,12.58Q108.9,12,109.28,12L110.06,12Q110.62,12,111,12.12Q111.38,12.24,111.62,12.45Q111.86,12.66,111.97,12.94Q112.08,13.22,112.12,13.52Q112.36,13.06,112.69,12.73Q113.02,12.4,113.38,12.19Q113.74,11.98,114.12,11.89Q114.5,11.8,114.82,11.8Q115.2,11.8,115.59,11.94Q115.98,12.08,116.3,12.36Q116.62,12.64,116.81,13.08Q117,13.52,117,14.12Q117,14.66,116.84,15.14Q116.68,15.62,116.38,15.99Q116.08,16.36,115.65,16.57Q115.22,16.78,114.7,16.78Z" fill="#121212" fill-opacity="1"/></g><g clip-path="url(#master_svg0_3_33483)"><g><path d="M0,6.8759790625C0,6.8759790625,8.35842,28.1924390625,8.35842,28.1924390625C8.35842,28.1924390625,9.28417,4.7900390625,9.28417,4.7900390625C9.28417,4.7900390625,0,6.8759790625,0,6.8759790625C0,6.8759790625,0,6.8759790625,0,6.8759790625Z" fill="#5533FF" fill-opacity="1"/></g><g><path d="M11.4051551171875,4.38867C11.4051551171875,4.38867,8.6512451171875,28.2246,8.6512451171875,28.2246C8.6512451171875,28.2246,29.9998451171875,0,29.9998451171875,0C29.9998451171875,0,11.4051551171875,4.38867,11.4051551171875,4.38867C11.4051551171875,4.38867,11.4051551171875,4.38867,11.4051551171875,4.38867Z" fill="#5533FF" fill-opacity="1"/></g></g></g></g></svg>